<?xml version="1.0" encoding="UTF-8"?>
<svg id="Lager_1" data-name="Lager 1" xmlns="http://www.w3.org/2000/svg" viewBox="0 0 101.64 253.41">
  <defs>
    <style>
      .cls-1 {
        font-family: ArialMT, Arial;
        font-size: 18px;
      }

      .cls-2 {
        fill: #fff;
        stroke: #000;
        stroke-miterlimit: 10;
        stroke-width: 2px;
      }
    </style>
  </defs>
  <polygon class="cls-2" points="1 247.95 8.91 252.26 20.94 245.49 28 236.87 72.32 219.02 75.4 227.64 79.71 228.25 86.48 226.41 86.48 215.33 92.02 215.33 89.96 189.47 89.96 135.91 100.64 126.68 100.64 112.52 89.96 58.34 86.48 40.7 83.89 36.05 73.55 29.41 57.79 32.1 61.09 18.35 57.55 7.1 50.82 1.09 37.42 4.17 28.76 12.27 27.01 18.64 26.4 28.49 29.84 37.45 34.56 37.45 37.42 37.45 27.38 47.51 24.38 54.34 24.38 58.65 19.21 59.57 17.13 63.58 9.84 65.42 11.07 74.04 15.38 79.58 20.57 96.2 20.94 101.74 20.57 107.28 24.38 109.75 25.84 121.14 22.15 171 14.45 202.71 10.45 234.1 12.3 235.95 6.76 241.8 1 245.8 1 247.95"/>
  <circle class="cls-2" cx="53.7" cy="80.81" r="13.72"/>
  <text class="cls-1" transform="translate(43.79 87.78)"><tspan x="0" y="0">17</tspan></text>
</svg>