<?xml version="1.0" encoding="UTF-8"?>
<svg id="Lager_1" data-name="Lager 1" xmlns="http://www.w3.org/2000/svg" viewBox="0 0 113.21 263.1">
  <defs>
    <style>
      .cls-1 {
        fill: #fff;
        stroke: #000;
        stroke-miterlimit: 10;
        stroke-width: 2px;
      }
    </style>
  </defs>
  <polyline class="cls-1" points="90.33 235.68 91.56 224.9 96.35 206.05 95.46 160.06 95.52 155.31 102.17 145.41 102.17 137.74 100.23 119.2 97.67 109.78 92.09 101.71 95.52 92.04 102.17 97.16 106.62 96.2 109.49 92.04 111.99 82.78 109.49 75.52 111.99 71.59 109.81 68.72 110.45 65.2 108.53 60.94 108.21 53.5 110.86 49.66 106.62 44.75 102.17 42.38 95.52 41.07 97 34.52 97 29.73 93.52 24.15 94.15 19.59 92.56 11.2 89.14 3.92 82.01 1 75.94 1 68.59 3.92 62.45 8.96 60.42 17.07 61.88 28.13 60.1 38.54 51.33 35.8 42.52 34.24 38.55 37.08 35.36 39.64 32.16 41.23 24.17 39.96 29.26 35.62 32.48 32.53 39.19 26.79 39.1 22.79 46.19 23.17 56.45 22.56 57.73 20.17 51.65 18.83 52.61 15.3 48.78 11.52 45.82 8.96 42.65 7.68 34.24 15.62 31.2 15.3 12.99 30.37 4.04 39.32 1.17 45.39 4.68 49.97 32.16 62.96 37.91 97.79 30.88 116.65 27.4 144.94 37.08 149.01 44.85 154.83 40.79 175.45 39.61 217.04 49.5 240.92 53.79 250.22 59.48 262.03 76.15 260.11 80.54 248.99 84.51 245.57 90.33 235.68"/>
  <circle class="cls-1" cx="66.22" cy="90.93" r="13.72"/>
  <g>
    <path d="M57.87,86.6l.77-1.26h2.56v12.93h-1.3v-11.67h-2.03Z"/>
    <path d="M74.14,85.34v1.26h-4.61l-.63,3.49c.32-.09.79-.23,1.51-.23,2.43,0,4.09,1.82,4.09,4.2s-1.73,4.52-4.54,4.52c-2.2,0-3.67-1.46-3.94-3.44h1.33c.32,1.58,1.53,2.25,2.7,2.25,1.66,0,3.1-1.4,3.1-3.38,0-1.75-1.19-2.95-3.04-2.95-1.01,0-1.89.34-2.75.7l1.19-6.41h5.6Z"/>
  </g>
</svg>