<?xml version="1.0" encoding="UTF-8"?>
<svg id="Lager_1" data-name="Lager 1" xmlns="http://www.w3.org/2000/svg" viewBox="0 0 69.13 279.1">
  <defs>
    <style>
      .cls-1 {
        fill: #fff;
        stroke: #000;
        stroke-miterlimit: 10;
        stroke-width: 2px;
      }
    </style>
  </defs>
  <polygon class="cls-1" points="27.23 269.92 40.41 278.1 50.41 278.1 56.31 274.01 59.5 272.07 62.68 272.07 64.95 269.92 64.95 264.01 54.5 255.37 51.77 251.28 56.77 226.28 59.95 204.01 64.95 188.1 68.13 184.01 68.13 159.92 68.13 134.47 62.68 114.47 45.88 105.83 49.95 99.47 49.95 89.47 47.68 82.2 39.95 75.38 27.23 77.65 24.04 88.11 26.32 98.11 29.5 101.74 24.04 104.02 24.04 69.93 24.04 62.65 21.32 58.56 61.77 42.2 45.88 1.29 1.32 18.57 12.68 45.84 14.5 49.47 11.77 52.65 13.59 59.47 15.41 62.65 14.95 69.47 12.68 80.38 12.68 86.74 10.86 104.02 17.23 124.01 14.95 134.47 10.86 153.1 7.23 164.22 17.68 171.74 25.86 175.38 29.04 191.28 31.77 201.28 34.72 228.56 29.95 245.37 31.77 256.28 27.23 269.92"/>
  <circle class="cls-1" cx="39.87" cy="146.27" r="13.72"/>
  <path d="M36.99,140.45l.91-1.49h3.02v15.27h-1.53v-13.78h-2.4Z"/>
</svg>