<?xml version="1.0" encoding="UTF-8"?>
<svg id="Lager_1" data-name="Lager 1" xmlns="http://www.w3.org/2000/svg" viewBox="0 0 117.97 152.25">
  <defs>
    <style>
      .cls-1 {
        font-family: CenturyGothicPro, 'Century Gothic Pro';
        font-size: 21.27px;
      }

      .cls-2 {
        fill: #fff;
        stroke: #000;
        stroke-miterlimit: 10;
        stroke-width: 2px;
      }
    </style>
  </defs>
  <polygon class="cls-2" points="66.48 144.58 60.58 151.14 52.06 149.17 41.57 142.62 38.95 137.7 26.49 130.81 16.66 117.7 16.66 105.57 16.66 101.97 7.48 95.74 1.25 87.54 4.85 82.63 7.8 63.94 8.46 53.45 19.61 40.34 32.39 33.13 29.49 28.21 26.49 23.95 29.49 19.69 26.16 13.13 28.13 5.26 35.34 1 43.86 1 50.09 5.92 53.04 13.78 54.35 19.69 55.34 24.93 55.01 31.81 54.68 35.42 63.86 35.75 70.74 38.37 72.71 42.63 75.33 51.48 75.33 63.61 78.28 78.36 78.28 90.82 75.01 95.08 95.33 94.43 109.75 94.75 113.03 101.64 111.39 107.54 103.53 114.75 106.8 119.34 113.03 120 116.97 126.55 116.97 130.49 116.97 134.75 113.03 138.35 105.82 136.71 97.95 134.42 90.09 131.47 87.13 131.8 82.87 143.6 77.3 143.6 68.12 139.34 66.48 144.58"/>
  <circle class="cls-2" cx="47.18" cy="76.07" r="13.72"/>
  <text class="cls-1" transform="translate(41.29 84.03)"><tspan x="0" y="0">3</tspan></text>
</svg>