<?xml version="1.0" encoding="UTF-8"?>
<svg id="Lager_1" data-name="Lager 1" xmlns="http://www.w3.org/2000/svg" viewBox="0 0 126.95 337.24">
  <defs>
    <style>
      .cls-1 {
        fill: #fff;
        stroke: #000;
        stroke-miterlimit: 10;
        stroke-width: 2px;
      }
    </style>
  </defs>
  <path class="cls-1" d="M118.78,47.63l.22-46.62L1.14,1.27l6.33,49.12H1.14v11.77l2.09,4.76h3.56v5.51h4.13l24.67,52.35,6.32,13.09v17.22l2.76,13.54,2.07,20.36-6.2,23.96-.69,20.95-1.38,31.4-2.88,31.69v15.84l2.88,23.42h11.96l5.26-7.58,4.13-8.95-8.27-15.38,3.44-7.36,13.78-57.17,4.82,19.96v40.84l5.44,15.66v13.09l33.14,3.44,4.13-4.82-8.27-5.51-8.27-8.27-.69-17.22-5.51-15.15.69-70.26,1.38-5.51-4.82-11.96-1.38-60.51,4.13-8.8,17.91-38.11,4.82-14.92h5.4v-13.33l4.24-1.18v-10.98l-7.16,1.37ZM100.64,89.3l-6.2,4.82-8.4,13.78-11.58,7.1-.69-11.23,5.44-12.98-4.75-7.22-10.74-5.28-13.11,1.38-4.39,11.13,1.38,12.29,6.2,8.95h-6.89l-6.89-10.33-15.55-34.92,81.68-.21-5.51,22.73Z"/>
  <circle class="cls-1" cx="65.05" cy="159.75" r="13.72"/>
  <g>
    <path d="M57.7,155.42l.77-1.26h2.56v12.93h-1.3v-11.67h-2.04Z"/>
    <path d="M67.67,155.42l.77-1.26h2.56v12.93h-1.3v-11.67h-2.04Z"/>
  </g>
</svg>