<?xml version="1.0" encoding="UTF-8"?>
<svg id="Lager_1" data-name="Lager 1" xmlns="http://www.w3.org/2000/svg" viewBox="0 0 175.87 252.8">
  <defs>
    <style>
      .cls-1 {
        font-family: CenturyGothicPro, 'Century Gothic Pro';
        font-size: 21.27px;
      }

      .cls-2 {
        fill: #fff;
        stroke: #000;
        stroke-miterlimit: 10;
        stroke-width: 2px;
      }
    </style>
  </defs>
  <polygon class="cls-2" points="93.67 251.8 102.04 251.8 113.65 251.8 113.65 243.42 113.65 235.04 118.16 227.95 118.16 216.35 162.63 216.35 174.87 222.8 174.87 202.17 174.87 190.57 151.02 132.57 158.12 112.59 160.7 104.21 134.27 76.49 123.96 76.49 118.16 76.49 118.16 51.36 100.76 38.47 88.51 38.47 92.38 26.22 96.89 19.78 93.67 8.17 82.06 1.08 71.11 4.31 64.66 17.2 68.53 23.64 70.46 32.67 73.69 38.47 56.28 46.2 56.28 56.51 56.28 79.36 28.46 80.49 25.07 78.51 20.26 79.08 18.57 83.32 19.98 88.97 10.94 120.89 1.05 176.54 21.39 207.05 21.39 223.72 33.54 226.54 43.43 245.19 54.45 236.43 53.03 219.48 70.83 218.35 74.5 226.82 73.94 236.43 68.01 237.84 67.72 241.23 63.2 245.47 63.2 250.27 67.44 250.55 80.44 249.42 89.48 247.16 93.67 251.8"/>
  <circle class="cls-2" cx="85.8" cy="130.78" r="13.72"/>
  <text class="cls-1" transform="translate(79.91 138.74)"><tspan x="0" y="0">6</tspan></text>
</svg>