<?xml version="1.0" encoding="UTF-8"?>
<svg id="Lager_1" data-name="Lager 1" xmlns="http://www.w3.org/2000/svg" viewBox="0 0 106.31 154.58">
  <defs>
    <style>
      .cls-1 {
        fill: #fff;
        stroke: #000;
        stroke-miterlimit: 10;
        stroke-width: 2px;
      }
    </style>
  </defs>
  <polygon class="cls-1" points="29.15 139.35 16.15 147.52 6.54 132.2 6.54 126.15 1 115.7 1 105.41 1 90.17 6.54 58.23 15.07 44.15 29.15 40.01 32.82 33.39 34.6 9.38 46.53 1.1 56.67 4.42 64.75 15.18 64.75 23.71 60.96 34.22 60.96 39.19 68.59 41.67 82.71 47.63 88.55 59.05 88.55 81.25 93.72 97.94 88.55 107.89 98.68 111.48 103.65 116.67 103.65 126.15 97.03 132.2 103.65 136.04 105.22 144.65 95.37 152.85 87.81 153.58 70.33 150.55 53.47 146.87 42.39 144.97 32.82 144.97 29.15 139.35"/>
  <circle class="cls-1" cx="50.06" cy="85.35" r="13.72"/>
  <path d="M50.37,78.03c2.51,0,4.36,1.87,4.36,4.02,0,1.4-.7,2.47-2.15,3.25,1.85.94,2.87,2.13,2.87,4,0,2.42-1.76,4.74-5.19,4.74s-5.13-2.25-5.13-4.62c0-1.96,1.11-3.19,2.96-4.13-1.53-.79-2.28-1.98-2.28-3.3,0-2.11,1.96-3.98,4.55-3.98ZM46.62,89.47c0,1.68,1.38,3.17,3.66,3.17s3.68-1.55,3.68-3.32c0-1.62-1.51-3.25-3.59-3.25-2.19,0-3.74,1.68-3.74,3.4ZM47.41,82.03c0,1.42,1.43,2.64,2.94,2.64,1.72,0,2.89-1.38,2.89-2.68,0-1.17-1-2.47-2.94-2.47-1.66,0-2.89,1.13-2.89,2.51Z"/>
</svg>