<?xml version="1.0" encoding="UTF-8"?>
<svg id="Lager_1" data-name="Lager 1" xmlns="http://www.w3.org/2000/svg" viewBox="0 0 93.06 236.52">
  <defs>
    <style>
      .cls-1 {
        fill: #fff;
        stroke: #000;
        stroke-miterlimit: 10;
        stroke-width: 2px;
      }
    </style>
  </defs>
  <polygon class="cls-1" points="23.26 40 22.41 37.7 25.81 30.53 26.53 26.52 25.56 20.94 28.24 14.62 30.66 8.06 33.94 3.45 39.86 1.5 45.46 1.02 50.83 3.08 54.71 9.28 56.78 16.32 57.26 22.88 57.26 26.28 57.26 30.29 57.99 33.57 59.57 34.3 64.55 35.27 72.2 39.28 78.64 49.11 86.74 69.12 89.88 81.27 89.88 93.41 87.86 99.7 87.18 105.55 85.84 108.47 91.99 119.12 90.84 123.69 90.56 131.7 85.98 136.28 78.26 139.42 69.68 137.14 74.26 148.29 74.26 151.72 68.82 159.16 71.4 170.88 69.39 178.03 70.54 187.76 70.25 193.76 63.96 206.35 62.24 210.06 63.67 215.21 62.24 219.5 58.24 223.79 54.4 224.94 53.09 228.37 54.4 232.66 49.37 235.52 42.22 235.52 39.86 228.08 32.21 217.21 30.5 204.34 32.21 182.04 26.78 154.3 22.78 139.42 23.06 127.98 16.82 128.84 20.2 133.42 19.92 137.14 16.82 140.85 13.34 141.43 8.48 137.14 8.48 132.27 5.9 130.56 7.33 127.13 1.61 127.7 5.04 119.98 4.47 113.11 7.62 109.11 10.48 102.24 9.91 89.09 11.05 75.36 11.05 61.35 16.48 47.62 23.26 40"/>
  <circle class="cls-1" cx="46.3" cy="96.56" r="13.72"/>
  <g>
    <path d="M37.95,92.23l.78-1.26h2.56v12.93h-1.3v-11.67h-2.04Z"/>
    <path d="M51.99,90.64l1.04.68-3.47,5.29c.31-.11.7-.23,1.31-.23,2.14,0,3.67,1.76,3.67,3.85,0,2.41-1.91,3.98-4.03,3.98-2.34,0-3.92-1.87-3.92-3.91,0-1.26.54-2.45,1.46-3.82l3.94-5.85ZM47.85,100.24c0,1.49,1.22,2.72,2.72,2.72s2.72-1.22,2.72-2.72-1.21-2.72-2.72-2.72-2.72,1.22-2.72,2.72Z"/>
  </g>
</svg>