<?xml version="1.0" encoding="UTF-8"?>
<svg id="Lager_1" data-name="Lager 1" xmlns="http://www.w3.org/2000/svg" viewBox="0 0 160.08 201.54">
  <defs>
    <style>
      .cls-1 {
        fill: #fff;
        stroke: #000;
        stroke-miterlimit: 10;
        stroke-width: 2px;
      }
    </style>
  </defs>
  <polygon class="cls-1" points="70.71 164.93 80.35 185.43 108.22 200.5 138.42 196.36 159.08 179.15 159.08 153.24 159.08 135.15 147.89 112.75 155.17 64.34 129.98 59.31 123.59 51.21 114.9 32.58 109.02 19.63 106.59 8.29 96.36 1 87.15 1 79.05 15.58 81.62 35.7 91.01 37.24 88.68 62.28 79.32 74.51 47.47 86.84 44.23 91.7 33.71 107.89 18.32 166.2 11 162.15 1.61 165.39 6.98 172.68 17.51 179.96 24.8 184.01 31.28 195.56 40.86 199.03 49.9 195.56 54.76 186.44 62.74 186.44 70.71 180.77 70.71 164.93"/>
  <circle class="cls-1" cx="100.59" cy="114.47" r="13.72"/>
  <g>
    <path d="M92.23,110.14l.77-1.26h2.56v12.93h-1.3v-11.67h-2.03Z"/>
    <path d="M104.51,109.82c-1.26,0-1.98.7-2.49,2.05h-1.31c.49-2.21,1.98-3.31,3.78-3.31,2.09,0,3.73,1.49,3.73,3.33,0,1.1-.56,2-1.66,2.65,1.53.63,2.36,2,2.36,3.42,0,2.16-1.71,4.18-4.39,4.18-2.23,0-3.78-1.28-4.25-3.78h1.28c.43,1.64,1.31,2.52,2.99,2.52,1.89,0,3.11-1.33,3.11-2.83,0-.95-.54-1.84-1.44-2.32-.74-.4-1.51-.45-2.34-.49v-1.19c2.05-.13,2.99-.97,2.99-2.16,0-1.1-.95-2.07-2.36-2.07Z"/>
  </g>
</svg>