<?xml version="1.0" encoding="UTF-8"?>
<svg id="Lager_1" data-name="Lager 1" xmlns="http://www.w3.org/2000/svg" viewBox="0 0 80.04 226.75">
  <defs>
    <style>
      .cls-1 {
        fill: #fff;
        stroke: #000;
        stroke-miterlimit: 10;
        stroke-width: 2px;
      }
    </style>
  </defs>
  <path class="cls-1" d="M40.16,225.75h7.34l2.19-4.75v-7.77h4.71l6.91-9.49,1.73-19.42v-5.18l1.51-11.65-1.51-6.26-.22-2.81,1.73-10.57v-12.3l3.45-.86,3.45-2.16,1.08-5.83-1.29-10.14-.34-21.36-1.17-12.95,9.06-5.39-11.01-26.76-14.89-11.44-5.18-4.96h-1.94l2.37-5.1.65-4.17.9-3.89-1.76-2.16-2.16-9.28-3.02-4.75-2.59-3.24h-3.42l-4.96,1.16-4.14-1.16-2.81,2.59-1.73,4.53v12.95l-1.62.65-.07,3.96,1.94,1.73,2.23,1.08,1.94-.51,1.62,7.44-3.67,1.19-2.59,3.45-1.47,3.02-.79,1.4-6.04,3.99-5.61,7.98-6.37,22.66-1.4,5.39,9.06,2.7-1.62,8.85,1.29,21.47v4.32l.54,2.48-4.64,7.12,2.16,3.88-.32,3.56,3.67,1.62,2.48-1.73,3.99.11.97-2.05-.32-4.86-.54-4.32-1.29-3.56s-.54-6.58-.32-6.15,2.59,7.66,2.59,7.66l2.16,5.61,1.08,6.15,2.27,8.42.65,4.1.86,3.99,1.29-.43,1.19,11.65-.86,9.06,1.19,7.44,2.7,10.57s4.1,12.73,4.1,13.06.43,5.72.43,5.72l-1.4,3.24-.32,4.21-.32,5.39.54,1.83h5.72Z"/>
  <circle class="cls-1" cx="40" cy="90.2" r="13.72"/>
  <path d="M35.81,83.33h9.68l-8.17,15.66-1.25-.64,7.06-13.53h-7.32v-1.49Z"/>
</svg>