<?xml version="1.0" encoding="UTF-8"?>
<svg id="Lager_1" data-name="Lager 1" xmlns="http://www.w3.org/2000/svg" viewBox="0 0 92.49 173.35">
  <defs>
    <style>
      .cls-1 {
        fill: #fff;
        stroke: #000;
        stroke-miterlimit: 10;
        stroke-width: 2px;
      }
    </style>
  </defs>
  <path class="cls-1" d="M19.9,162.2l5.12,3.42,7.48,1.58,9.45-2.5,3.54-5.38h4.33v-3.94l4.33,6.82h5.12l3.94,4.99,3.54,3.15,9.45,1.97,5.91-1.97,9.06-8.14-3.15-4.85-5.91-1.97-4.33-4.33-8.27-3.94-6.3-6.51-5.12-6.88,7.88-2.36,8.66,6.3,4.73,2.94,2.36-9.24.39-7.09-3.54-8.27.39-7.88-1.97-6.7,1.58-7.88-1.97-6.3,1.58-9.06-1.97-16.54-1.97-11.42-2.76-3.94-9.06-4.33-4.73-3.21.39-4.28.39-7.48,2.36-7.09.79-5.91-6.1-11.03-7.29-1.97h-8.66l-6.3,3.94-4.33,7.09-1.97,4.33.79,4.73v4.33l-1.58,4.33.39,5.51.79,3.49.39,3.99-5.91,1.18-7.48,3.94-2.36,3.54v14.18l-2.36,7.88v16.54l2.76,10.63.79,5.91-9.06,11.42v3.54l-3.15,5.12v11.03l9.85,1.18,2.36-4.33s7.09.39,7.48,1.58c.39,1.18,10.63,2.76,10.63,2.76l.39,3.54-6.3,7.48-9.45,5.91,3.94,6.43Z"/>
  <circle class="cls-1" cx="43.75" cy="87.66" r="13.72"/>
  <path d="M42.11,96.37l-1.25-.81,4.13-6.25c-.43.13-.94.28-1.57.28-2.53,0-4.32-2.06-4.32-4.55,0-2.83,2.21-4.7,4.74-4.7,2.76,0,4.64,2.19,4.64,4.62,0,1.47-.64,2.89-1.72,4.51l-4.64,6.91ZM46.98,85.04c0-1.77-1.42-3.21-3.21-3.21s-3.19,1.42-3.19,3.21,1.42,3.21,3.19,3.21,3.21-1.45,3.21-3.21Z"/>
</svg>