<?xml version="1.0" encoding="UTF-8"?>
<svg id="Lager_1" data-name="Lager 1" xmlns="http://www.w3.org/2000/svg" viewBox="0 0 94.9 238.89">
  <defs>
    <style>
      .cls-1 {
        fill: #fff;
        stroke: #000;
        stroke-miterlimit: 10;
        stroke-width: 2px;
      }
    </style>
  </defs>
  <path class="cls-1" d="M44.23,237.89v-16l-4.14-11.04,4.14-12.69v-22.08l3.31-10.49,4.42-19.87h3.31v24.28l2.21,4.42v19.87l3.31,12.14v18.76l6.62,5.52,7.73,2.21,3.86-3.86-5.52-10.49-2.21-7.73,1.1-11.04-.55-19.87.55-13.8,4.42-20.42h13.25v-53.53l3.86-9.38v-7.17l-4.97-2.76-1.66-35.87h-18.21l-4.14-3.86v-16l-5.79-11.04.9-4.07-6.42-1.03h-4.35l-6,1.86-2.69,2.48-.62,5.17,2.69,1.03-2.28,4.76s-.83,5.38-.83,6,1.45,5.59,1.45,5.59l.62,5.59s-5.31.21-5.66,1.03-2.83,4.55-2.83,5.17-6.62,1.24-6.62,1.24l-21.32.21,1.86,55.26-4.55,2.48-1.45,7.24,1.86,3.73,2.69.62,3.52,1.24.03,5.18.17,30.63v2.06s18.22.83,18.22.83l2.28-.21.62,14.69-.62,8.69-1.24,11.27.41,12.32,3.1,14.69-.21,2.69-1.45,8.9-.83,6.83.83,5.38,3.93,2.21h9.86Z"/>
  <circle class="cls-1" cx="47.47" cy="90.52" r="13.19"/>
  <path d="M47.68,91.5c1.79-1.94,2.83-3.11,2.83-4.76,0-1.77-1.45-3.19-3.3-3.19s-3.36,1.42-3.55,3.76h-1.47c.09-2.98,2.23-5.17,5.08-5.17s4.72,2.04,4.72,4.59c0,2.08-1.23,3.53-3.04,5.49l-3.81,4.08h7.06v1.49h-10.38l5.85-6.3Z"/>
</svg>