<?xml version="1.0" encoding="UTF-8"?>
<svg id="Lager_1" data-name="Lager 1" xmlns="http://www.w3.org/2000/svg" viewBox="0 0 92.46 248.93">
  <defs>
    <style>
      .cls-1 {
        fill: #fff;
        stroke: #000;
        stroke-miterlimit: 10;
        stroke-width: 2px;
      }
    </style>
  </defs>
  <polyline class="cls-1" points="28.73 241.73 30.56 246.58 31.04 247.86 38.75 247.86 43.76 244.8 43.76 235.47 39.72 228.92 49.57 197.87 51.7 191.78 49.42 219.82 49.42 239.75 60.47 245.63 67.71 247.86 73.83 245.07 71.28 239.75 66.04 233.09 68.82 212.77 71.28 200.07 73.83 164.67 81.07 162.54 76.95 140.31 78.85 122.19 81.07 122.19 79.4 109.75 76.95 104.46 72.72 101.95 67.43 100 71.28 91.09 71.28 83.3 75.5 80.96 71.28 79.68 68.27 72.44 65.48 66.31 91.38 61.58 85.81 1.15 1.16 14.52 11.74 75.22 49.42 69.37 44.6 72.71 44.88 80.96 44.6 82.46 41.26 86.64 43.76 88.59 49.42 93.32 51.7 94.71 51.7 98.05 46.06 101.39 38.75 105.29 34.02 113.93 33.18 122.19 36.8 124.51 39.59 124.51 40.98 132.49 38.75 145.11 35.66 167.67 38.47 169.34 35.66 187.71 32.35 203.31 27.33 226.97 25.66 235.47 27.33 239.75 28.73 241.73 28.73 241.73"/>
  <circle class="cls-1" cx="49.45" cy="40.44" r="13.72"/>
  <g>
    <path d="M41.1,36.1l.77-1.26h2.56v12.93h-1.3v-11.67h-2.04Z"/>
    <path d="M53.57,34.52c2.12,0,3.69,1.58,3.69,3.4,0,1.19-.59,2.09-1.82,2.75,1.57.79,2.43,1.8,2.43,3.39,0,2.05-1.5,4.02-4.39,4.02s-4.34-1.91-4.34-3.91c0-1.66.94-2.7,2.5-3.49-1.3-.67-1.93-1.67-1.93-2.79,0-1.78,1.66-3.37,3.85-3.37ZM50.41,44.21c0,1.42,1.17,2.68,3.1,2.68s3.12-1.31,3.12-2.81c0-1.37-1.28-2.75-3.04-2.75-1.85,0-3.17,1.42-3.17,2.88ZM51.07,37.9c0,1.21,1.21,2.23,2.49,2.23,1.46,0,2.45-1.17,2.45-2.27,0-.99-.85-2.09-2.48-2.09-1.4,0-2.45.95-2.45,2.12Z"/>
  </g>
</svg>