<?xml version="1.0" encoding="UTF-8"?>
<svg id="Lager_1" data-name="Lager 1" xmlns="http://www.w3.org/2000/svg" viewBox="0 0 130.06 323.11">
  <defs>
    <style>
      .cls-1 {
        fill: #fff;
        stroke: #000;
        stroke-miterlimit: 10;
        stroke-width: 2px;
      }
    </style>
  </defs>
  <polygon class="cls-1" points="38.41 311.15 49.73 313.42 56.56 311.15 53.97 297.93 53.97 289.27 51.55 277.42 51.55 266.94 50.64 241.88 53.97 220.91 58.84 210.43 66.13 222.28 70.69 246.89 73.43 268.31 73.43 285.63 73.43 295.2 77.98 303.17 75.7 319.35 84.36 322.08 106.69 318.44 106.69 312.06 93.93 303.17 93.48 285.63 93.02 260.1 91.66 241.88 88.69 231.88 92.57 215.9 92.57 194.02 88.69 175.8 83.45 158.93 85.27 149.45 86.19 130.22 88.69 122.02 95.3 129.31 106.69 155.6 114.9 175.8 114.9 181.72 117.63 197.67 120.37 199.95 120.37 206.79 125.05 206.79 129.02 195.39 125.05 178.07 120.82 155.6 116.7 138.22 105.95 117.4 101.68 102.42 93.93 91.49 75.7 84.65 78.44 81.95 81.17 79.15 83.72 70.69 83.72 63.65 83.72 53.91 81.63 46.83 75.7 42.27 64.77 42.27 53.97 46.83 49.27 56.1 53.97 70.6 53.97 79.15 51.55 81.95 41.98 79.15 34.04 74.06 27.27 66.57 19.24 59.13 16 39.53 16 15.92 19.24 9.58 16 5.18 9.08 1.08 1 3.53 1 7.63 1 13.1 4.16 15.92 4.61 37.71 4.16 66.78 5.07 74.06 9.08 79.15 19.24 89.49 26.03 99.23 30.02 122.48 30.02 155.6 30.02 186.28 32.41 215.9 32.87 240.96 32.87 261.02 36.06 279.7 38.41 297.02 38.41 311.15"/>
  <circle class="cls-1" cx="60.23" cy="133.08" r="13.72"/>
  <g>
    <path d="M51.88,128.74l.77-1.26h2.56v12.93h-1.3v-11.67h-2.03Z"/>
    <path d="M66.96,127.16h.27v8.98h1.57v1.26h-1.57v3.01h-1.3v-3.01h-6.18l7.2-10.25ZM65.94,136.14v-5.37l-3.8,5.37h3.8Z"/>
  </g>
</svg>