<?xml version="1.0" encoding="UTF-8"?>
<svg id="Lager_1" data-name="Lager 1" xmlns="http://www.w3.org/2000/svg" viewBox="0 0 132.71 229.81">
  <defs>
    <style>
      .cls-1 {
        fill: #fff;
        stroke: #000;
        stroke-miterlimit: 10;
        stroke-width: 2px;
      }
    </style>
  </defs>
  <path class="cls-1" d="M103.36,209.13v-20.92c.03-9.23,2.41-15.56,3.97-29.94,1.35-12.47.85-19.62,2.53-19.84,2.48-.33,7.45,14.71,11.54,18.04.26.21,1.34,1.05,2.22,2.53.34.57,1.13,1.9,1.19,3.57.11,2.83-1.96,3.91-1.34,5.21.57,1.19,2.93,1.57,4.62.89,2.03-.82,2.68-3,2.98-4.02,1.11-3.76-.95-7.53-1.4-7.89-.02-.02-.11-.08-.09-.14.05-.23,1.34.18,1.81-.15,1.17-.82-.77-7.57-4.78-13.1-1.15-1.58-2.27-2.79-2.68-4.94-.33-1.72.08-2.56-.6-4.29-.67-1.72-1.43-1.79-2.08-3.28-.87-1.97-.18-3.29-.15-5.51.02-2.08-.93-4.12-2.83-8.19-2.72-5.81-3.98-6.02-4.02-8.73-.03-2.4.94-4.1-.15-5.27-.66-.71-1.24-.31-3.13-1.04-2.15-.83-3.48-2.14-4.32-2.98-1.27-1.27-2.03-2.04-2.08-3.13-.07-1.55,1.36-2.62,2.25-3.56,3.09-3.25,2.93-8.25,2.84-11.05-.04-1.12-.3-9.46-6.29-13.26-.94-.6-3.29-2.09-6.02-1.58-2.94.55-4.62,3.1-6.95,6.63-1.01,1.54-2.59,3.97-3.47,7.58-.71,2.88-1.47,5.98,0,8.52,0,0,.06.1,2.21,3.16.3,1.09.49,2.3-.06,2.71-.7.51-1.9-.79-4.13-1.33-2.29-.55-3.18.3-6,.4-1.58.06-4.25.15-6.53-1.2-2-1.18-3.33-4.25-6-10.4-.28-.65-.52-1.21-.67-2-.46-2.36.52-3.06,0-4.72-.54-1.72-1.87-1.88-1.77-3.09.1-1.22,1.49-1.34,1.63-2.54.16-1.33-1.51-1.63-2.36-3.82-.77-1.98.05-3.12-.91-4.18-.73-.8-1.9-.92-2.72-.91l-12.56-16,19.51-16.39L43.54,1.41,1.39,36.66l21.33,26.93,19.64-15.09,7.42,11.84c.65,2.34,1.04,5.07,1.04,5.07l1.56,1.17.13,2.6,1.82,2.86,1.3,1.04,1.43.78-1.82,1.82-.65,1.3.78,2.34-.26,2.86.65,2.34,1.43,14.7,9.35,11.32,3.13,2.08,1.17,3.64.26,8.2-1.56,23.94-1.82,1.69-1.82,5.2,1.69.13-1.69,16,1.43,21.33-2.21,9.63,2.08,6.73-3.64,6.91-6.33,5.96-1.64,4.28v2.54h4.09l11.73-4.09,7.95-2.45.07-4.89,1.41-4.89h0l2.63,7.31,5.94,3.01,7.91.55h6.54l-1.36-4.09-5.18-3.27-4.36-3.54,10.39-3.32Z"/>
  <circle class="cls-1" cx="91.36" cy="126.33" r="13.72"/>
  <path d="M93.53,118.64h.32v10.61h1.85v1.49h-1.85v3.55h-1.53v-3.55h-7.3l8.51-12.1ZM92.32,129.25v-6.34l-4.49,6.34h4.49Z"/>
</svg>