<?xml version="1.0" encoding="UTF-8"?>
<svg id="Lager_1" data-name="Lager 1" xmlns="http://www.w3.org/2000/svg" viewBox="0 0 99.39 311.33">
  <defs>
    <style>
      .cls-1 {
        fill: #fff;
        stroke: #000;
        stroke-miterlimit: 10;
        stroke-width: 2px;
      }
    </style>
  </defs>
  <polyline class="cls-1" points="65.62 306.88 65.62 295.04 71.57 232.34 76.76 214.85 76.76 174.4 76.76 160.46 82.35 155.04 90.11 170.92 85.84 189.05 94.21 188.35 98.39 182.68 98.39 170.92 87.23 88.22 85.84 79.87 84.22 71.36 76.76 68.29 65.62 61.73 62.59 59.81 64.92 55.86 66.55 51.21 66.08 46.6 67.71 42.35 68.17 35.87 65.85 28.89 60.97 24.01 59.31 20.29 59.31 16.11 62.59 14.25 66.08 14.25 70.03 14.25 67.01 11.46 63.29 10.3 59.31 12.62 57.02 10.3 58.41 3.2 57.02 1 53.86 1 53.86 6.11 50.21 6.35 43.3 6.11 39.35 10.53 36.15 11 34.93 12.39 36.15 14.48 34.93 17.97 36.15 19.13 36.15 23.31 34.93 26.19 32.84 32.63 31.68 39.12 32.84 40.52 36.15 39.12 36.15 48.19 37.96 53.76 37.96 59.58 31.68 64.92 30.52 65.86 20.99 67.25 16.57 72 11.46 83.75 1.06 111.14 1.06 120.48 1.06 127.22 3.86 132.56 5.76 135.59 7.27 136.75 2.62 150.37 1.06 157.2 3.86 162.55 7.27 169.99 13.32 174.4 18.9 175.1 25.05 175.8 23.08 184.79 25.05 207.9 24.01 220.25 28.19 226.01 28.66 235.77 31.91 240.69 36.64 245.41 36.15 249.8 38.65 253.9 41.44 258.08 39.81 264.13 43.53 266.68 44.7 269.47 45.86 284.35 48.65 290.63 51.2 294.58 49.72 305.04 51.2 308.99 54.92 310.33 61.2 310.33 65.15 307.83 65.62 306.88 65.62 306.88 65.62 306.88 65.62 306.88"/>
  <circle class="cls-1" cx="48.81" cy="124.76" r="13.72"/>
  <g>
    <path d="M40.46,120.42l.77-1.26h2.56v12.93h-1.3v-11.67h-2.03Z"/>
    <path d="M53.37,126.76c1.51-1.64,2.39-2.63,2.39-4.03,0-1.5-1.22-2.7-2.79-2.7s-2.85,1.21-3.01,3.19h-1.24c.07-2.52,1.89-4.38,4.3-4.38s4,1.73,4,3.89c0,1.76-1.04,2.99-2.58,4.65l-3.22,3.46h5.98v1.26h-8.79l4.95-5.33Z"/>
  </g>
</svg>