<?xml version="1.0" encoding="UTF-8"?>
<svg id="Lager_1" data-name="Lager 1" xmlns="http://www.w3.org/2000/svg" viewBox="0 0 133.46 159.32">
  <defs>
    <style>
      .cls-1 {
        fill: #fff;
        stroke: #000;
        stroke-miterlimit: 10;
        stroke-width: 2px;
      }
    </style>
  </defs>
  <polyline class="cls-1" points="69.22 148.71 65.32 151.74 54.36 158.26 42.99 155.77 35.55 151.74 25.82 151.74 25.82 145.12 25.82 141.15 9.69 132.38 1.13 118.98 5.66 108.29 16.25 104.36 27.33 104.36 35.55 104.36 32.91 74.92 35.55 55.98 38.42 46.4 50.02 40.85 50.02 27.25 50.02 16.16 56.24 4.57 69.22 1.04 83.28 5.07 87.31 15.15 87.31 25.73 82.78 34.46 80.85 37.83 97.93 40.35 107.16 52.95 111.5 74.92 111.5 96.82 126.62 100.51 132.44 108.29 132.03 117.76 107.16 133.4 112.01 134.48 115.96 142.66 112.51 147.2 104.45 148.71 97.37 147.7 91.53 145.12 89.33 145.12 87.82 148.71 80.85 149.22 69.22 148.71"/>
  <circle class="cls-1" cx="72.68" cy="88.12" r="13.72"/>
  <g>
    <path d="M68.26,89.12c1.51-1.64,2.39-2.63,2.39-4.03,0-1.49-1.22-2.7-2.79-2.7s-2.84,1.21-3.01,3.19h-1.24c.07-2.52,1.89-4.38,4.3-4.38s4,1.73,4,3.89c0,1.76-1.04,2.99-2.58,4.65l-3.22,3.46h5.98v1.26h-8.79l4.95-5.33Z"/>
    <path d="M73.52,85.25c.5-2.59,2.07-4.05,4.18-4.05,1.62,0,3.04.97,3.8,2.74.5,1.15.65,2.49.65,4.03s-.16,2.9-.65,4.05c-.76,1.76-2.18,2.75-3.8,2.75-1.44,0-2.63-.68-3.42-2-.76-1.24-.97-2.83-.97-4.81,0-.9.04-1.82.22-2.72ZM75.3,92.13c.56.94,1.48,1.46,2.41,1.46,1.87,0,3.22-1.8,3.22-5.6s-1.33-5.6-3.22-5.6c-.95,0-1.85.56-2.41,1.49-.59.99-.74,2.34-.74,4.11s.14,3.15.74,4.14Z"/>
  </g>
</svg>