<?xml version="1.0" encoding="UTF-8"?>
<svg id="Lager_1" data-name="Lager 1" xmlns="http://www.w3.org/2000/svg" viewBox="0 0 83.66 242.34">
  <defs>
    <style>
      .cls-1 {
        fill: #fff;
        stroke: #000;
        stroke-miterlimit: 10;
        stroke-width: 2px;
      }
    </style>
  </defs>
  <path class="cls-1" d="M59.87,223.17v15.1l1.79,2.3,2.56-2.05v-7.93l2.56,1.28,3.33-1.28,1.28,7.68,2.3,2.3,1.28-3.07,1.02-21.5v-6.4l-2.3-6.4-2.56-6.91-1.02-13.05.26-6.14,5.63-6.4,5.63-5.12,1.02-34.06-4.61-12.79-4.1-6.4,2.56-2.56-1.28-14.33-2.56-4.61,1.54-19.71-1.28-17.15-3.07-10.35-7.17-4.24h-6.14l-5.07-4.1,1.74-2.82,2.3-2.56.26-8.96.77-6.56s1.79-3.9,1.79-4.56-2.56-7.06-2.56-7.06l-4.35-1.79h-18.97l-2.02,3.19-1.28,5.66,1.79,4.56,2.82,1.18-1.31,3.07v8.7l1.31,4.35,1.28,2.56-5.89.51-5.38,2.05-7.42,2.82-2.56,3.98v4.98l-7.17,20.99-1.28,15.1,1.28,4.86,6.14,1.54,4.86-.26-5.12,4.1-2.3,3.84.51,8.96-.51,4.35-7.42,8.7-1.79,18.43,1.54,23.55,4.86,6.91,4.35,2.05,3.58,2.3.26,7.17.77,16.64-5.63,5.89-1.28,6.65,1.54,3.58,1.02,4.1-.26,10.75,1.54,9.73,2.82.77,1.02-8.96,3.33,1.54,2.82-2.56.77,9.47,2.56.77,2.05-4.35.77-13.31,30.46,1.28Z"/>
  <circle class="cls-1" cx="41.83" cy="72.14" r="13.72"/>
  <path d="M46.4,64.83v1.49h-5.45l-.75,4.13c.38-.11.94-.28,1.79-.28,2.87,0,4.83,2.15,4.83,4.96s-2.04,5.34-5.36,5.34c-2.59,0-4.34-1.72-4.66-4.06h1.57c.38,1.87,1.81,2.66,3.19,2.66,1.96,0,3.66-1.66,3.66-4,0-2.06-1.4-3.49-3.59-3.49-1.19,0-2.23.4-3.25.83l1.4-7.57h6.62Z"/>
</svg>