<?xml version="1.0" encoding="UTF-8"?>
<svg id="Lager_1" data-name="Lager 1" xmlns="http://www.w3.org/2000/svg" viewBox="0 0 118.21 293.77">
  <defs>
    <style>
      .cls-1 {
        fill: #fff;
        stroke: #000;
        stroke-miterlimit: 10;
        stroke-width: 2px;
      }
    </style>
  </defs>
  <polygon class="cls-1" points="99.99 71.89 95.63 53.11 88.16 46.54 77.93 42.08 67.62 39.41 73.22 34.43 71.98 25.48 73.84 17.01 70.11 6.54 62.64 6.54 58.28 1 48.32 1 42.1 3.93 42.1 10.16 34 13.89 34 22.89 30.89 29.45 34 36.44 37.12 42.08 22.18 46.54 6.25 61.78 1.01 94.82 4.25 116.95 4.65 126.95 3.5 138.08 8.48 144.2 9.1 151.46 10.65 154.89 13.46 156.44 20.93 282.18 20.31 289.65 26.53 289.65 25.6 282.5 17.2 148.96 20.62 148.96 21.55 137.46 20 131.85 20.93 124.38 19.06 120.34 24.04 113.49 23.73 129.99 24.67 134.97 27.16 154.89 28.4 168.27 32.45 175.43 40.85 218.69 43.03 224.92 44.27 233.32 52.68 261.02 57.97 266.93 58.28 274.4 56.41 285.61 61.39 285.61 65.75 290.9 71.35 292.77 76.96 292.77 81.31 285.3 81 277.52 87.54 256.66 88.16 223.36 85.67 207.18 87.85 185.7 91.27 165.78 90.96 153.02 90.96 139.64 92.52 132.79 93.45 127.19 96.56 134.34 99.99 138.39 103.1 142.75 103.1 158.93 104.66 162.67 107.46 163.91 110.57 162.98 115.55 160.46 115.55 153.64 115.55 146.88 115.55 141.81 113.68 137.77 117.11 134.34 110.88 107.89 99.99 71.89"/>
  <circle class="cls-1" cx="59.06" cy="103.34" r="13.72"/>
  <g>
    <path d="M50.71,99l.77-1.26h2.56v12.93h-1.3v-11.67h-2.04Z"/>
    <path d="M58.89,101.47c.5-2.59,2.07-4.05,4.18-4.05,1.62,0,3.04.97,3.8,2.74.5,1.15.65,2.48.65,4.03s-.16,2.9-.65,4.05c-.76,1.76-2.18,2.75-3.8,2.75-1.44,0-2.63-.68-3.42-2-.76-1.24-.97-2.83-.97-4.81,0-.9.04-1.82.22-2.72ZM60.68,108.35c.56.94,1.48,1.46,2.41,1.46,1.87,0,3.22-1.8,3.22-5.6s-1.33-5.6-3.22-5.6c-.95,0-1.85.56-2.41,1.49-.59.99-.74,2.34-.74,4.11s.14,3.15.74,4.14Z"/>
  </g>
</svg>