<?xml version="1.0" encoding="UTF-8"?>
<svg id="Lager_1" data-name="Lager 1" xmlns="http://www.w3.org/2000/svg" viewBox="0 0 103.4 297.27">
  <defs>
    <style>
      .cls-1 {
        font-family: CenturyGothicPro, 'Century Gothic Pro';
        font-size: 18px;
      }

      .cls-2 {
        fill: #fff;
        stroke: #000;
        stroke-miterlimit: 10;
        stroke-width: 2px;
      }
    </style>
  </defs>
  <polygon class="cls-2" points="25.93 296.26 36.61 294.15 49.62 296.26 63.85 295.21 58.27 279.53 63.85 224.46 63.85 205.91 76.12 165.75 76.12 142.33 85.67 142.33 79.47 117.03 80.58 94.36 92.85 94.36 92.85 74.28 102.4 67.59 102.4 56.43 96.38 51.85 95.09 41.93 64.16 41.93 64.16 22.97 60.23 5.49 52.33 1.03 39.68 2.52 34.11 14.79 33.73 24.08 39.58 42.59 6.96 42.3 6.96 59.41 1.01 72.05 3.15 107.37 10.68 114.44 18.49 111.84 22.21 108.12 17 125.22 14.4 140.09 20.72 140.47 22.21 179.14 19.6 214.46 14.77 246.06 14.03 272.09 14.03 291.8 19.6 296.26 25.93 296.26"/>
  <circle class="cls-2" cx="51.21" cy="117.25" r="13.72"/>
  <text class="cls-1" transform="translate(40.3 124.59)"><tspan x="0" y="0">19</tspan></text>
</svg>